<?xml version="1.0" encoding="utf-8"?><!-- Uploaded to: SVG Repo, www.svgrepo.com, Generator: SVG Repo Mixer Tools -->
<svg fill="#000000" width="800px" height="800px" viewBox="0 0 24 24" id="cold-2" data-name="Flat Color" xmlns="http://www.w3.org/2000/svg" class="icon flat-color"><path id="primary" d="M12,13V5A3,3,0,0,0,6,5v8a5,5,0,0,0,1.81,8.84A5.37,5.37,0,0,0,9,22a5,5,0,0,0,3-9Z" style="fill: rgb(0, 0, 0);"></path><path id="secondary" d="M19.71,10.71l-2,2a1,1,0,0,1-1.42,0l-2-2a1,1,0,0,1,1.42-1.42l.29.3V3a1,1,0,0,1,2,0V9.59l.29-.3a1,1,0,0,1,1.42,1.42ZM9,15.5A1.5,1.5,0,1,0,10.5,17,1.5,1.5,0,0,0,9,15.5Z" style="fill: rgb(44, 169, 188);"></path></svg>